# xmcd CD database file
#
# Track frame offsets:
#	183
#	19735
#	42683
#
# Disc length: 837 seconds
#
# Revision: 0
# Processed by: cddbd v1.5.1PL0 Copyright (c) Steve Scherf et al.
# Submitted via: CDex 1.51
#
DISCID=21034303
DTITLE=A.S.A.P. - Down The Wire (EP)
DYEAR=1990
DGENRE=Hard Rock
TTITLE0=Down The Wire (Long Distance Mix)
TTITLE1=When She's Gone
TTITLE2=School Days
EXTD=YEAR: 1990
EXTT0=
EXTT1=
EXTT2=
PLAYORDER=
